<svg width="189" height="285" viewBox="0 0 189 285" fill="none" xmlns="http://www.w3.org/2000/svg">
<path d="M150.942 92.2813C173.252 111.891 185.767 138.115 188.487 170.954C191.207 203.793 175.443 224.539 141.194 233.194C106.945 241.849 79.9445 250.084 60.1926 257.898C40.4406 265.712 16.8466 273.518 -10.5895 281.315C-38.0257 289.112 -57.7403 280.336 -69.7334 254.986C-81.7265 229.636 -100.007 204.621 -124.576 179.942C-149.145 155.262 -149.614 130.986 -125.984 107.114C-102.354 83.241 -79.4336 64.4314 -57.2233 50.6848C-35.013 36.9382 -9.92055 22.9361 18.054 8.67861C46.0286 -5.57894 69.5928 -0.112028 88.7465 25.0793C107.9 50.2707 128.632 72.6713 150.942 92.2813Z" fill="#4788FF"/>
</svg>