<svg width="263" height="196" viewBox="0 0 263 196" fill="none" xmlns="http://www.w3.org/2000/svg">
<path d="M41.7014 20.0441C75.3438 -1.85497 97.9071 -20.0527 109.391 -34.5491C120.875 -49.0455 118.246 -83.1104 101.502 -136.744C84.7578 -190.377 99.339 -212.27 145.245 -202.423C191.152 -192.576 234.664 -200.546 275.781 -226.332C316.899 -252.118 347.322 -246.674 367.052 -209.999C386.782 -173.325 395.106 -139.411 392.025 -108.258C388.943 -77.1051 400.339 -55.1825 426.212 -42.4905C452.085 -29.7986 452.785 -13.625 428.312 6.03003C403.839 25.6851 394.135 46.7924 399.2 69.3519C404.265 91.9114 398.922 113.466 383.171 134.014C367.42 154.563 345.988 172.387 318.874 187.486C291.761 202.585 266.507 196.691 243.112 169.804C219.717 142.917 198.825 127.123 180.435 122.423C162.045 117.722 129.505 118.367 82.8147 124.358C36.1246 130.348 9.18917 119.935 2.00856 93.1183C-5.17206 66.3012 8.05888 41.9431 41.7014 20.0441Z" fill="#4788FF"/>
</svg>