<svg width="217" height="233" viewBox="0 0 217 233" fill="none" xmlns="http://www.w3.org/2000/svg">
<path d="M78.0821 26.4239L171.177 45.4734L201.206 135.602L138.141 206.682L45.046 187.632L15.0166 97.5033L78.0821 26.4239Z" fill="#4788FF"/>
<g clip-path="url(#clip0_133_4)">
<path d="M143.356 70.433L52.3762 101.072C46.8164 102.944 43.7994 109.025 45.6718 114.585L59.2891 155.02C61.1615 160.58 67.2424 163.597 72.8023 161.725L163.782 131.086C169.341 129.214 172.359 123.133 170.486 117.573L156.869 77.1375C154.996 71.5776 148.915 68.5606 143.356 70.433ZM160.377 120.977L69.3979 151.616L55.7806 111.181L146.76 80.5418L160.377 120.977ZM82.859 141.455L92.9678 138.051L89.5635 127.942L99.6723 124.538L96.268 114.429L86.1591 117.833L82.7548 107.724L72.646 111.129L76.0503 121.238L65.9415 124.642L69.3458 134.751L79.4547 131.346L82.859 141.455Z" fill="white"/>
<path d="M125.821 125.987C130.009 124.577 132.26 120.039 130.85 115.852C129.44 111.665 124.902 109.413 120.715 110.824C116.528 112.234 114.276 116.771 115.687 120.958C117.097 125.146 121.634 127.397 125.821 125.987Z" fill="white"/>
<path d="M140.933 104.015C145.12 102.605 147.371 98.0672 145.961 93.88C144.551 89.6928 140.013 87.4415 135.826 88.8517C131.639 90.2618 129.388 94.7993 130.798 98.9865C132.208 103.174 136.745 105.425 140.933 104.015Z" fill="white"/>
</g>
<defs>
<clipPath id="clip0_133_4">
<rect width="128" height="128" fill="white" transform="translate(27 74.8521) rotate(-18.6119)"/>
</clipPath>
</defs>
</svg>