
<svg id="visual" viewBox="0 0 1200 200" width="1200" height="200" xmlns="http://www.w3.org/2000/svg" xmlns:xlink="http://www.w3.org/1999/xlink" version="1.1"><path d="M0 33L16.7 40C33.3 47 66.7 61 100 71.7C133.3 82.3 166.7 89.7 200 82.5C233.3 75.3 266.7 53.7 300 49.7C333.3 45.7 366.7 59.3 400 59.7C433.3 60 466.7 47 500 49C533.3 51 566.7 68 600 78.8C633.3 89.7 666.7 94.3 700 88.8C733.3 83.3 766.7 67.7 800 62C833.3 56.3 866.7 60.7 900 67C933.3 73.3 966.7 81.7 1000 79.7C1033.3 77.7 1066.7 65.3 1100 61.2C1133.3 57 1166.7 61 1183.3 63L1200 65L1200 201L1183.3 201C1166.7 201 1133.3 201 1100 201C1066.7 201 1033.3 201 1000 201C966.7 201 933.3 201 900 201C866.7 201 833.3 201 800 201C766.7 201 733.3 201 700 201C666.7 201 633.3 201 600 201C566.7 201 533.3 201 500 201C466.7 201 433.3 201 400 201C366.7 201 333.3 201 300 201C266.7 201 233.3 201 200 201C166.7 201 133.3 201 100 201C66.7 201 33.3 201 16.7 201L0 201Z" fill="#1067b8"></path><path d="M0 84L16.7 93.5C33.3 103 66.7 122 100 120.7C133.3 119.3 166.7 97.7 200 97.5C233.3 97.3 266.7 118.7 300 129.5C333.3 140.3 366.7 140.7 400 137.8C433.3 135 466.7 129 500 123.8C533.3 118.7 566.7 114.3 600 110C633.3 105.7 666.7 101.3 700 100.5C733.3 99.7 766.7 102.3 800 109C833.3 115.7 866.7 126.3 900 127.8C933.3 129.3 966.7 121.7 1000 114.7C1033.3 107.7 1066.7 101.3 1100 96.8C1133.3 92.3 1166.7 89.7 1183.3 88.3L1200 87L1200 201L1183.3 201C1166.7 201 1133.3 201 1100 201C1066.7 201 1033.3 201 1000 201C966.7 201 933.3 201 900 201C866.7 201 833.3 201 800 201C766.7 201 733.3 201 700 201C666.7 201 633.3 201 600 201C566.7 201 533.3 201 500 201C466.7 201 433.3 201 400 201C366.7 201 333.3 201 300 201C266.7 201 233.3 201 200 201C166.7 201 133.3 201 100 201C66.7 201 33.3 201 16.7 201L0 201Z" fill="#2a78db"></path><path d="M0 134L16.7 139.2C33.3 144.3 66.7 154.7 100 155.5C133.3 156.3 166.7 147.7 200 144.2C233.3 140.7 266.7 142.3 300 140.7C333.3 139 366.7 134 400 132.5C433.3 131 466.7 133 500 137.8C533.3 142.7 566.7 150.3 600 150C633.3 149.7 666.7 141.3 700 140.3C733.3 139.3 766.7 145.7 800 151.8C833.3 158 866.7 164 900 158.8C933.3 153.7 966.7 137.3 1000 134.3C1033.3 131.3 1066.7 141.7 1100 151C1133.3 160.3 1166.7 168.7 1183.3 172.8L1200 177L1200 201L1183.3 201C1166.7 201 1133.3 201 1100 201C1066.7 201 1033.3 201 1000 201C966.7 201 933.3 201 900 201C866.7 201 833.3 201 800 201C766.7 201 733.3 201 700 201C666.7 201 633.3 201 600 201C566.7 201 533.3 201 500 201C466.7 201 433.3 201 400 201C366.7 201 333.3 201 300 201C266.7 201 233.3 201 200 201C166.7 201 133.3 201 100 201C66.7 201 33.3 201 16.7 201L0 201Z" fill="#4788ff"></path></svg>