
<svg id="visual" viewBox="0 0 1200 200" width="1200" height="200" xmlns="http://www.w3.org/2000/svg" xmlns:xlink="http://www.w3.org/1999/xlink" version="1.1"><path d="M0 166L16.7 161.7C33.3 157.3 66.7 148.7 100 140.2C133.3 131.7 166.7 123.3 200 115.7C233.3 108 266.7 101 300 109.3C333.3 117.7 366.7 141.3 400 154.2C433.3 167 466.7 169 500 156.3C533.3 143.7 566.7 116.3 600 111.2C633.3 106 666.7 123 700 126C733.3 129 766.7 118 800 116.2C833.3 114.3 866.7 121.7 900 128C933.3 134.3 966.7 139.7 1000 141.8C1033.3 144 1066.7 143 1100 140C1133.3 137 1166.7 132 1183.3 129.5L1200 127L1200 0L1183.3 0C1166.7 0 1133.3 0 1100 0C1066.7 0 1033.3 0 1000 0C966.7 0 933.3 0 900 0C866.7 0 833.3 0 800 0C766.7 0 733.3 0 700 0C666.7 0 633.3 0 600 0C566.7 0 533.3 0 500 0C466.7 0 433.3 0 400 0C366.7 0 333.3 0 300 0C266.7 0 233.3 0 200 0C166.7 0 133.3 0 100 0C66.7 0 33.3 0 16.7 0L0 0Z" fill="#1067b8"></path><path d="M0 118L16.7 116.8C33.3 115.7 66.7 113.3 100 108.7C133.3 104 166.7 97 200 95.7C233.3 94.3 266.7 98.7 300 95.8C333.3 93 366.7 83 400 75.7C433.3 68.3 466.7 63.7 500 64.2C533.3 64.7 566.7 70.3 600 75.2C633.3 80 666.7 84 700 83.5C733.3 83 766.7 78 800 76.7C833.3 75.3 866.7 77.7 900 83.8C933.3 90 966.7 100 1000 99C1033.3 98 1066.7 86 1100 86.2C1133.3 86.3 1166.7 98.7 1183.3 104.8L1200 111L1200 0L1183.3 0C1166.7 0 1133.3 0 1100 0C1066.7 0 1033.3 0 1000 0C966.7 0 933.3 0 900 0C866.7 0 833.3 0 800 0C766.7 0 733.3 0 700 0C666.7 0 633.3 0 600 0C566.7 0 533.3 0 500 0C466.7 0 433.3 0 400 0C366.7 0 333.3 0 300 0C266.7 0 233.3 0 200 0C166.7 0 133.3 0 100 0C66.7 0 33.3 0 16.7 0L0 0Z" fill="#2a78db"></path><path d="M0 25L16.7 25.5C33.3 26 66.7 27 100 33.2C133.3 39.3 166.7 50.7 200 58.5C233.3 66.3 266.7 70.7 300 65.2C333.3 59.7 366.7 44.3 400 35.3C433.3 26.3 466.7 23.7 500 25.3C533.3 27 566.7 33 600 32.8C633.3 32.7 666.7 26.3 700 32.7C733.3 39 766.7 58 800 58.7C833.3 59.3 866.7 41.7 900 35.7C933.3 29.7 966.7 35.3 1000 41.7C1033.3 48 1066.7 55 1100 56.5C1133.3 58 1166.7 54 1183.3 52L1200 50L1200 0L1183.3 0C1166.7 0 1133.3 0 1100 0C1066.7 0 1033.3 0 1000 0C966.7 0 933.3 0 900 0C866.7 0 833.3 0 800 0C766.7 0 733.3 0 700 0C666.7 0 633.3 0 600 0C566.7 0 533.3 0 500 0C466.7 0 433.3 0 400 0C366.7 0 333.3 0 300 0C266.7 0 233.3 0 200 0C166.7 0 133.3 0 100 0C66.7 0 33.3 0 16.7 0L0 0Z" fill="#4788ff"></path></svg>