
<svg id="visual" viewBox="0 0 1200 400" width="1200" height="400" xmlns="http://www.w3.org/2000/svg" xmlns:xlink="http://www.w3.org/1999/xlink" version="1.1"><path d="M0 149L150 123L300 84L450 114L600 159L750 185L900 171L1050 136L1200 116L1200 401L1050 401L900 401L750 401L600 401L450 401L300 401L150 401L0 401Z" fill="#88adff"></path><path d="M0 189L150 167L300 214L450 229L600 224L750 203L900 214L1050 165L1200 183L1200 401L1050 401L900 401L750 401L600 401L450 401L300 401L150 401L0 401Z" fill="#6a9bff"></path><path d="M0 251L150 215L300 253L450 257L600 197L750 210L900 236L1050 265L1200 223L1200 401L1050 401L900 401L750 401L600 401L450 401L300 401L150 401L0 401Z" fill="#4788ff"></path></svg>